Motion_pu06
version=1
nRows=15
nColumns=43
inDegrees=yes
endheader
time	pelvis_tilt	pelvis_list	pelvis_rotation	pelvis_tx	pelvis_ty	pelvis_tz	hip_flexion_r	hip_adduction_r	hip_rotation_r	knee_angle_r	ankle_angle_r	subtalar_angle_r	mtp_angle_r	hip_flexion_l	hip_adduction_l	hip_rotation_l	knee_angle_l	ankle_angle_l	subtalar_angle_l	mtp_angle_l	lumbar_extension	lumbar_bending	lumbar_rotation	neck_flexion	neck_lateral_bending	neck_rotation	arm_flex_r	arm_add_r	arm_rot_r	elbow_flex_r	pro_sup_r	wrist_flex_r	wrist_dev_r	hand_finger_flex_r	arm_flex_l	arm_add_l	arm_rot_l	elbow_flex_l	pro_sup_l	wrist_flex_l	wrist_dev_l	hand_finger_flex_l
      2.51500000	      0.23680187	      0.99819875	    -92.54358313	     -0.03731411	      0.81894920	      1.16035539	      6.88543541	    -14.85438504	    -14.48374869	    -85.67333354	     -9.53752095	    -17.30676840	     -5.47693033	      9.89778675	    -11.51908299	    -10.32438150	    -86.79256450	    -18.45853340	    -14.30550154	     -2.81477524	      7.67022515	     -0.10349665	      8.30040973	      5.28129496	      2.22465301	     -5.10467444	    -12.16380993	   -158.70078108	   -124.46616911	     35.42565344	    122.57730339	     20.00127170	     -6.97978239	     69.32781465	    158.89674056	    -16.70128756	     39.99170799	     31.86405711	    129.22733406	      1.75441187	     -5.60859782	     70.07567063
      2.51750000	      0.23789392	      1.21852291	    -92.51479287	     -0.03739755	      0.81818545	      1.16124106	      6.85839607	    -14.76959261	    -14.52330052	    -85.37460200	     -9.54840195	    -17.28822728	     -5.47772125	      9.88623846	    -11.48016253	    -10.30401854	    -86.47047374	    -18.47920825	    -14.29543406	     -2.79317165	      7.75529077	     -0.12523109	      8.41779441	      5.14300204	      2.27842704	     -5.14130064	    -11.65716210	   -158.74772364	   -124.55791604	     35.32080743	    122.61343334	     19.97028535	     -6.96092254	     69.33389942	    159.30988497	    -16.62251994	     39.91623033	     31.83505283	    129.19730126	      1.70296869	     -5.57819357	     70.08511489
      2.52000000	      0.23309621	      1.23681003	    -92.50802344	     -0.03733309	      0.81791845	      1.16169660	      6.85644096	    -14.76974893	    -14.52243933	    -85.37402371	     -9.54850967	    -17.28825409	     -5.47772574	      9.88482496	    -11.47901973	    -10.30450822	    -86.46972914	    -18.47958191	    -14.29518968	     -2.79302575	      7.74290963	     -0.12747201	      8.42471411	      5.14214961	      2.27892342	     -5.14158145	    -11.65861995	   -158.74957758	   -124.55776890	     35.32129043	    122.61363172	     19.97005426	     -6.96088777	     69.33395462	    159.31315939	    -16.62232994	     39.91582742	     31.83463354	    129.19712432	      1.70267514	     -5.57795872	     70.08519532
      2.52250000	      0.23818361	      1.51649440	    -92.45626097	     -0.03749025	      0.81707144	      1.16338522	      6.77290019	    -14.63013809	    -14.49596990	    -84.98700777	     -9.51155350	    -17.28730401	     -5.45473208	      9.83188735	    -11.44093682	    -10.29737120	    -86.06471275	    -18.59041106	    -14.18865632	     -2.67855052	      7.95138813	     -0.12730813	      8.53657327	      5.02888135	      2.47361683	     -5.33445019	    -11.02824016	   -158.87229690	   -124.19610078	     35.05213996	    122.67508045	     19.94949145	     -6.96252645	     69.37098276	    159.87297674	    -16.46664512	     40.15285868	     31.22381278	    129.10018187	      1.70683495	     -5.46695842	     70.14452611
      2.52500000	      0.23412834	      1.53269570	    -92.45046158	     -0.03743615	      0.81683367	      1.16381828	      6.77167383	    -14.63008638	    -14.49567190	    -84.98630537	     -9.51158365	    -17.28728109	     -5.45470789	      9.83072423	    -11.44001438	    -10.29753472	    -86.06395694	    -18.59065404	    -14.18838760	     -2.67837293	      7.94000242	     -0.12946962	      8.54318215	      5.02806636	      2.47376111	     -5.33471816	    -11.02948555	   -158.87247633	   -124.19658898	     35.05302752	    122.67508386	     19.94930656	     -6.96262116	     69.37105033	    159.87664096	    -16.46634995	     40.15260314	     31.22468332	    129.09979792	      1.70650841	     -5.46704891	     70.14460781
      2.52750000	      0.22518744	      1.75763535	    -92.46359726	     -0.03787493	      0.81607374	      1.16488605	      6.75116203	    -14.53277558	    -14.52429241	    -84.69837193	     -9.50142612	    -17.27302129	     -5.44948401	      9.79711798	    -11.40080283	    -10.26604504	    -85.74555652	    -18.60025243	    -14.15075330	     -2.65375222	      8.04868901	     -0.19514702	      8.61277825	      4.90512876	      2.51914609	     -5.38101773	    -10.55985018	   -158.81735040	   -124.22667087	     35.01194058	    122.68795427	     19.93450321	     -6.96449643	     69.38005857	    160.33829483	    -16.39307066	     40.15297854	     31.27915933	    129.05391696	      1.67510137	     -5.47253016	     70.15355784
      2.53000000	      0.22056311	      1.77300989	    -92.45846455	     -0.03784130	      0.81586643	      1.16529155	      6.74997821	    -14.53331466	    -14.52296303	    -84.69736653	     -9.50117891	    -17.27316943	     -5.44942917	      9.79537406	    -11.39949608	    -10.26636965	    -85.74484325	    -18.60055371	    -14.15027701	     -2.65355219	      8.03884688	     -0.19696163	      8.61719453	      4.90423595	      2.51981897	     -5.38144576	    -10.55986134	   -158.81879012	   -124.22619495	     35.01256207	    122.68798079	     19.93440149	     -6.96460365	     69.38014184	    160.34128570	    -16.39273092	     40.15338663	     31.27883972	    129.05361626	      1.67500799	     -5.47248420	     70.15364173
      2.53250000	      0.22457596	      2.02386209	    -92.44221117	     -0.03813414	      0.81515229	      1.16648590	      6.73099117	    -14.41673120	    -14.48467870	    -84.34661997	     -9.45679630	    -17.27115405	     -5.44061871	      9.74360236	    -11.32436391	    -10.23315450	    -85.35175448	    -18.60727956	    -14.08646598	     -2.62421015	      8.18205975	     -0.24440151	      8.63730856	      4.75636917	      2.62736302	     -5.44811632	    -10.06611809	   -158.84029161	   -124.14295128	     34.90643015	    122.70299029	     19.93025651	     -6.96771264	     69.39150143	    160.84613931	    -16.35468410	     40.22041243	     31.20852112	    129.01324899	      1.66611167	     -5.46254722	     70.16441223
      2.53500000	      0.21995368	      2.03812444	    -92.43868504	     -0.03811303	      0.81498916	      1.16687060	      6.72995393	    -14.41737848	    -14.48303483	    -84.34556746	     -9.45625647	    -17.27140485	     -5.44053717	      9.74149000	    -11.32301071	    -10.23319845	    -85.35131032	    -18.60754983	    -14.08584381	     -2.62397135	      8.17355957	     -0.24641716	      8.63994043	      4.75540115	      2.62828876	     -5.44865340	    -10.06524908	   -158.84202106	   -124.14206474	     34.90675620	    122.70297192	     19.93024531	     -6.96786853	     69.39160256	    160.84812935	    -16.35411960	     40.22167125	     31.20743199	    129.01295549	      1.66629461	     -5.46248226	     70.16452127
      2.53750000	      0.38730187	      2.44297718	    -92.66922249	     -0.03935252	      0.81365462	      1.16856183	      6.95852206	    -14.24820221	    -13.92605665	    -84.15561701	     -8.57480458	    -16.83506667	     -5.21731812	      9.68614136	    -11.21329944	    -10.26105849	    -84.98726757	    -17.93191135	    -12.07289833	     -0.67029978	      8.38858193	     -0.66309309	      8.29732665	      5.67450220	      3.57351515	     -5.55604262	     -9.72899498	   -158.53356538	   -124.42639715	     34.93672782	    122.42528213	     20.21736263	     -7.59598204	     69.78711372	    163.25970363	    -16.31828830	     45.69643369	     29.49145516	    124.47591009	      1.53582090	     -6.57177924	     70.54416382
      2.54000000	      0.38488763	      2.45693392	    -92.66585534	     -0.03930934	      0.81360647	      1.16888819	      6.95845768	    -14.24843601	    -13.92594840	    -84.15528849	     -8.57477623	    -16.83509947	     -5.21731875	      9.68591855	    -11.21307817	    -10.26110735	    -84.98707003	    -17.93196330	    -12.07288654	     -0.67026846	      8.37667737	     -0.66484576	      8.30134938	      5.67408585	      3.57362651	     -5.55603953	     -9.73250369	   -158.53410618	   -124.42603499	     34.93667929	    122.42530607	     20.21732511	     -7.59596332	     69.78711497	    163.25979522	    -16.31816570	     45.69643189	     29.49143948	    124.47584155	      1.53576083	     -6.57175771	     70.54416827
      2.54250000	      0.37365117	      2.66373970	    -92.67505365	     -0.03962105	      0.81303801	      1.16951324	      6.95314918	    -14.19804426	    -13.95789793	    -83.84091295	     -8.55992083	    -16.83326121	     -5.21773194	      9.67064917	    -11.16213074	    -10.23752110	    -84.65525596	    -17.93581357	    -12.06475524	     -0.65268467	      8.44204648	     -0.68639208	      8.35013949	      5.43997172	      3.64621366	     -5.55896457	     -9.27330426	   -158.57259807	   -124.47471951	     34.84507399	    122.45589576	     20.19439465	     -7.57650159	     69.78915294	    163.64379695	    -16.29673566	     45.65258319	     29.49823822	    124.43636508	      1.48922044	     -6.55631651	     70.54654757
      2.54500000	      0.37155433	      2.67533040	    -92.67237343	     -0.03958528	      0.81299716	      1.16979834	      6.95321294	    -14.19818234	    -13.95767808	    -83.84052093	     -8.55984659	    -16.83330532	     -5.21772783	      9.67025207	    -11.16192103	    -10.23753496	    -84.65511597	    -17.93586558	    -12.06471572	     -0.65265217	      8.43232192	     -0.68806176	      8.35316975	      5.43956923	      3.64635948	     -5.55896941	     -9.27630456	   -158.57321670	   -124.47402773	     34.84501403	    122.45593115	     20.19438784	     -7.57648656	     69.78915719	    163.64405298	    -16.29661293	     45.65265174	     29.49815572	    124.43630496	      1.48918435	     -6.55628656	     70.54655644
      2.54750000	      0.39004279	      2.92267063	    -92.67285182	     -0.03994250	      0.81239277	      1.17100490	      6.93728198	    -14.10030224	    -13.90200817	    -83.43777223	     -8.52044283	    -16.83795402	     -5.21571836	      9.58972414	    -11.07981463	    -10.22808334	    -84.23410899	    -17.93775071	    -12.02889071	     -0.62666127	      8.58892989	     -0.73742405	      8.27951713	      5.14842378	      3.75904829	     -5.56055423	     -8.86447196	   -158.63680008	   -124.29649414	     34.69506590	    122.49310340	     20.18633783	     -7.55634298	     69.79405425	    164.13196461	    -16.27657866	     45.68472672	     29.42365662	    124.39436776	      1.46035208	     -6.52871549	     70.55394783
      2.55000000	      0.38815942	      2.93327929	    -92.67042560	     -0.03991206	      0.81238626	      1.17126611	      6.93715951	    -14.10032857	    -13.90179789	    -83.43754958	     -8.52038429	    -16.83798161	     -5.21571331	      9.58950336	    -11.07967410	    -10.22808442	    -84.23390290	    -17.93776542	    -12.02883253	     -0.62662316	      8.58022100	     -0.73913270	      8.28237703	      5.14806580	      3.75918290	     -5.56054094	     -8.86707749	   -158.63727562	   -124.29590434	     34.69508169	    122.49310736	     20.18633438	     -7.55634803	     69.79406144	    164.13204231	    -16.27653157	     45.68494528	     29.42344953	    124.39432654	      1.46037676	     -6.52868106	     70.55396363
